<svg width="49" height="36" viewBox="0 0 49 36" fill="none" xmlns="http://www.w3.org/2000/svg">
<path fill-rule="evenodd" clip-rule="evenodd" d="M35.6832 26.9146C35.2458 26.5993 35 26.1718 35 25.7261C35 25.2803 35.2458 24.8528 35.6832 24.5375L43.3674 19.0017L35.6832 13.4658C35.2582 13.1487 35.0229 12.7241 35.0283 12.2833C35.0336 11.8425 35.279 11.4209 35.7116 11.1092C36.1443 10.7975 36.7296 10.6207 37.3414 10.6169C37.9532 10.6131 38.5427 10.7825 38.9828 11.0887L48.3168 17.8131C48.7542 18.1284 49 18.5559 49 19.0017C49 19.4474 48.7542 19.8749 48.3168 20.1902L38.9828 26.9146C38.5452 27.2297 37.9518 27.4068 37.333 27.4068C36.7142 27.4068 36.1208 27.2297 35.6832 26.9146Z" fill="black"/>
<path fill-rule="evenodd" clip-rule="evenodd" d="M13.3168 11.109C13.7542 11.4243 14 11.8518 14 12.2976C14 12.7433 13.7542 13.1708 13.3168 13.4861L5.63257 19.022L13.3168 24.5578C13.7418 24.8749 13.9771 25.2995 13.9717 25.7403C13.9664 26.1811 13.721 26.6027 13.2884 26.9144C12.8557 27.2261 12.2704 27.4029 11.6586 27.4067C11.0468 27.4106 10.4573 27.2411 10.0172 26.9349L0.683217 20.2105C0.245754 19.8952 0 19.4677 0 19.022C0 18.5762 0.245754 18.1487 0.683217 17.8334L10.0172 11.109C10.4548 10.7939 11.0482 10.6168 11.667 10.6168C12.2858 10.6168 12.8792 10.7939 13.3168 11.109Z" fill="black"/>
<rect width="8.62482" height="36.9643" rx="4.31241" transform="matrix(0.905408 0.424543 -0.484385 0.874855 30.4578 0)" fill="black"/>
<path d="M21.6 15.8128L29.5675 19.4789" stroke="white" stroke-width="3"/>
</svg>
